<?xml version="1.0" encoding="utf-8"?>
<!-- Generator: Adobe Illustrator 26.0.2, SVG Export Plug-In . SVG Version: 6.00 Build 0)  -->
<svg version="1.1" id="Layer_1" xmlns="http://www.w3.org/2000/svg" xmlns:xlink="http://www.w3.org/1999/xlink" x="0px" y="0px"
	 viewBox="0 0 263.8 151.2" style="enable-background:new 0 0 263.8 151.2;" xml:space="preserve">
<style type="text/css">
	.st0{fill:#CCCCCC;}
	.st1{opacity:0.2;}
</style>
<g>
	<path class="st0" d="M263.7,5.6c-0.5-3.2-3.2-5.6-6.5-5.6H6.6C3.3,0,0.5,2.4,0.1,5.6C0,6.3,0,7,0,7.7v127.4
		c0,8.9,7.2,16.1,16.1,16.1c0,0,0,0,0,0h231.6c8.9,0,16.1-7.2,16.1-16.1c0,0,0,0,0,0V7.7C263.8,6.9,263.7,6.2,263.7,5.6z"/>
	<g>
		<path class="st0" d="M259.3,1.9c0-1-0.9-1.9-1.9-1.9H6.2c-1,0-1.9,0.9-1.9,1.9l0,0v129.2c0,8.6,7,15.6,15.6,15.6h223.8
			c8.6,0,15.6-7,15.6-15.6V1.9z"/>
		<g class="st1">
			<path class="st0" d="M4.4,131.1c0,8.6,7,15.6,15.6,15.6h223.8c8.6,0,15.6-7,15.6-15.6V24.5H4.5L4.4,131.1L4.4,131.1z"/>
		</g>
	</g>
</g>
</svg>
